<svg width="14" height="16" viewBox="0 0 14 16" fill="none" xmlns="http://www.w3.org/2000/svg">
<path d="M2.16602 15.166C1.39453 15.166 0.896484 14.7168 0.896484 14.0039C0.896484 13.8086 0.945312 13.5352 1.0625 13.2324L5.1543 2.10938C5.49609 1.17188 6.0625 0.742188 6.98047 0.742188C7.9082 0.742188 8.47461 1.15234 8.82617 2.09961L12.9277 13.2324C13.0449 13.5547 13.0938 13.7793 13.0938 14.0039C13.0938 14.6875 12.5664 15.166 11.834 15.166C11.1504 15.166 10.7695 14.8535 10.5449 14.1016L9.61719 11.4062H4.35352L3.42578 14.082C3.19141 14.8438 2.82031 15.166 2.16602 15.166ZM4.94922 9.41406H9.00195L7 3.39844H6.93164L4.94922 9.41406Z" fill="#F1F1F1"/>
</svg>
